<?xml version="1.0" encoding="UTF-8"?><svg id="Layer_2" xmlns="http://www.w3.org/2000/svg" viewBox="0 0 1445.64 1489.98"><defs><style>.cls-1{fill:#;}</style></defs><g id="_紫"><path fill="#9c57d1" class="cls-1" d="M352.54,338.77s58.46,198.64,238.86,337.52c186.96,143.93,278.22,143.93,349.44,192.9,71.22,48.97,61.58,109.8,23.74,120.93-37.84,11.13-39.32,23.74-37.84,35.61,1.48,11.87,12.61,31.16,55.64,45.26,43.03,14.1,351.67,104.61,351.67,104.61,0,0,99.42,32.64,109.8,88.29,10.39,55.64-23,122.42-141.71,80.13-118.71-42.29-275.25-97.93-344.25-114.25-69-16.32-141.71-33.39-165.45-1.48-23.74,31.9-.74,56.39,26.71,79.38,27.45,23,101.64,95.71,63.8,151.35-37.84,55.64-116.48,25.22-177.32-5.19-60.84-30.42-214.41-108.32-362.05-263.38C195.96,1035.37,49.53,859.42,9.75,771.44c-39.77-87.98,48.21-159.09,153.07-72.31,31.34,25.31,57.85-24.1,16.87-74.72-40.98-50.62-167.98-241.28-139.05-317.21,10.85-31.34,57.85-50.62,90.39-20.49,32.54,30.13-14.95-23.69-45.38-69.03C-64.62-6.21,194.92-86.6,262.85,117c31.03,93,89.69,221.78,89.69,221.78Z"/></g></svg>
