<svg xmlns="http://www.w3.org/2000/svg" viewBox="0 0 1878 1814"><path fill-rule="evenodd" fill="#FFC6ED" d="M1222.567 537.315c-87.883-70.007 185.016-477.627 99.877-532.681-85.139-55.054-300.456 438.482-388.413 377.315-87.956-61.166-152.156-312.895-255.243-288.535-119.51 28.24 19.114 309.219-77.682 377.315-61.991 43.61-422.193-147.452-454.998-44.39-35.903 112.792 329.113 219.633 321.828 277.438-7.153 56.748-214.06 3.165-221.95 88.78-7.89 85.615 177.126 86.439 166.462 166.463-10.664 80.023-442.297 201.142-410.608 321.827 31.689 120.686 399.727-98.923 454.998-77.683 55.271 21.242-19.813 168.097 33.293 210.854 84.965 68.405 160.394-92.552 244.145-55.488 83.752 37.064 51.413 459.94 144.268 454.998 92.854-4.942 157.878-420.829 244.145-454.998 66.397-26.299 319.617 383.861 377.316 277.438 57.697-106.424-192.099-353.237-155.366-432.804 24.276-52.583 515.465 103.89 532.681 0 13.308-80.312-339.471-195.593-421.705-266.339-82.235-70.747 198.714-33.337 210.852-133.17 12.138-99.835-293.304-30.952-299.632-99.878-6.773-73.745 175.045-174.352 133.17-233.048-41.877-58.695-239.29 96.974-277.438 66.586Z"/></svg>