<?xml version="1.0" encoding="UTF-8"?><svg id="Layer_2" xmlns="http://www.w3.org/2000/svg" viewBox="0 0 1646.95 651.06"><defs><style>.cls-1{fill:#9dd1e4;}</style></defs><g id="_あお"><g>
<path class="cls-1" fill='#9dd1e4' d="M1268.16,.56c-3.47-1.16-162.13-2.32-271,16.21-108.86,18.53-260.57,49.8-369.44,122.76s-39.84,99.53-35.99,111.07,0,24.62-41.55,32.31-183.11,30.78-323.91,123.1S13.93,582.98,4.7,605.29s-7.69,49.24,30.78,45.39,290.83-131.56,340.84-153.11,216.2-109.25,356.99-96.94c23.85,3.08,36.93,24.62,82.32,14.62,45.39-10,60.01-26.16,109.25-52.32,49.24-26.16,80.71-62.65,314.68-64.63,292.56-2.47,281.27-82.38,229.16-126.68-37.12-31.55,2.36-50.56,31.27-44.3,84.25,18.24,141.85-.29,146.79-40.82,4.34-35.61-72.09-56.46-148.53-68.62C1414.14,4.51,1268.16,.56,1268.16,.56Z"/>
<path class="cls-1" fill='#9dd1e4' d="M337.99,309.98c-2.4-4.31-7.91-7.52-20.49-1.77-8.81,5.18-17.62,19.69-8.29,25.4,9.33,5.7,16.58-1.04,21.25-4.66,2.21-1.72,4.42-4.14,6.14-6.21,2.98-3.59,3.66-8.68,1.4-12.75Z"/><path class="cls-1" fill='#9dd1e4' d="M400.83,282.22c-6.3,3.6-12.27,7.74-17.94,12.27-6.54,5.22-17.02,11.85-24.97,8.54-12.44-5.18-9.85-18.14,1.55-30.58s56.49-64.27,136.82-68.93c21.77,0,41.46,19.18,19.18,33.17-22.29,13.99-35.76,9.33-50.79,16.07-27.31,12.24-45.55,18.99-63.86,29.46Z"/></g></g></svg>
